<svg xmlns="http://www.w3.org/2000/svg" xmlns:xlink="http://www.w3.org/1999/xlink" width="107" zoomAndPan="magnify" viewBox="0 0 80.25 38.249999" height="51" preserveAspectRatio="xMidYMid meet" version="1.0"><defs><g/></defs><g fill="#000000" fill-opacity="1"><g transform="translate(15.536354, 24.211747)"><g><path d="M 21.949219 -11.414062 C 17.023438 -10.007812 12.46875 -7.390625 8.753906 -3.871094 C 9.195312 -4.75 9.609375 -5.628906 9.984375 -6.53125 C 10.382812 -7.5 10.800781 -8.46875 11.0625 -9.480469 C 11.261719 -10.183594 11.21875 -10.929688 10.710938 -11.480469 C 10.074219 -12.207031 9.304688 -12.074219 8.511719 -11.746094 C 7.585938 -11.394531 6.707031 -10.976562 5.871094 -10.46875 C 3.9375 -9.347656 2.175781 -7.917969 0.703125 -6.222656 C 0.328125 -5.785156 1.363281 -4.792969 1.738281 -5.191406 C 3.1875 -6.863281 4.882812 -8.292969 6.796875 -9.390625 C 7.300781 -9.675781 7.808594 -9.941406 8.335938 -10.183594 C 8.753906 -10.382812 9.371094 -10.511719 9.742188 -10.777344 C 9.941406 -10.777344 10.027344 -10.886719 9.984375 -11.128906 C 10.007812 -11.019531 10.007812 -10.910156 10.007812 -10.820312 C 10.007812 -10.578125 9.941406 -10.382812 9.898438 -10.160156 C 9.722656 -9.589844 9.5 -9.039062 9.28125 -8.46875 C 7.960938 -5.015625 6.160156 -1.757812 4.246094 1.429688 C 3.628906 2.351562 3.078125 3.277344 2.550781 4.265625 C 2.308594 4.707031 3.363281 5.628906 3.695312 5.082031 C 4.222656 4.199219 4.75 3.320312 5.277344 2.441406 C 6.335938 0.878906 7.542969 -0.59375 8.863281 -1.933594 C 9.128906 0.527344 10.558594 2.96875 12.886719 3.957031 C 13.371094 4.15625 14.316406 3.101562 13.769531 2.859375 C 11.480469 1.914062 10.117188 -0.636719 10.027344 -3.078125 C 13.636719 -6.421875 18.011719 -8.929688 22.785156 -10.292969 C 23.335938 -10.445312 22.457031 -11.570312 21.949219 -11.414062 Z M 21.949219 -11.414062 "/></g></g></g><g fill="#000000" fill-opacity="1"><g transform="translate(30.601354, 24.211747)"><g><path d="M 21.992188 -2.507812 C 21.949219 -2.835938 21.574219 -3.144531 21.289062 -3.234375 C 20.34375 -3.519531 19.375 -3.652344 18.410156 -3.695312 C 18.585938 -4.113281 18.78125 -4.53125 18.957031 -4.925781 C 19.597656 -6.289062 20.257812 -7.609375 20.871094 -8.953125 C 21.421875 -10.140625 22.367188 -11.570312 21.816406 -12.886719 C 21.707031 -13.152344 21.246094 -13.59375 20.894531 -13.460938 C 18.894531 -12.644531 17.15625 -11.171875 15.527344 -9.742188 C 13.964844 -8.359375 12.46875 -6.863281 11.105469 -5.277344 C 10.445312 -4.53125 9.832031 -3.761719 9.238281 -2.96875 C 6.355469 -2.417969 3.519531 -1.5625 0.8125 -0.417969 C 0.242188 -0.175781 1.164062 0.921875 1.648438 0.726562 C 3.738281 -0.152344 5.894531 -0.878906 8.09375 -1.40625 C 6.621094 0.726562 5.324219 2.992188 4.222656 5.367188 C 4.003906 5.828125 5.082031 6.753906 5.34375 6.179688 C 6.6875 3.34375 8.292969 0.660156 10.183594 -1.847656 C 10.578125 -1.933594 10.976562 -2 11.394531 -2.066406 C 13.042969 -2.332031 14.734375 -2.484375 16.40625 -2.527344 C 15.96875 -1.386719 15.550781 -0.21875 15.261719 0.96875 C 14.976562 2.132812 14.933594 3.386719 16.273438 3.871094 C 16.582031 3.980469 16.714844 3.71875 16.671875 3.453125 C 16.628906 3.210938 16.429688 3.011719 16.230469 2.882812 C 16.230469 2.835938 16.210938 2.816406 16.210938 2.769531 C 16.253906 2.660156 16.230469 2.484375 16.253906 2.375 C 16.320312 2.023438 16.429688 1.695312 16.515625 1.363281 C 16.714844 0.636719 16.933594 -0.0664062 17.175781 -0.746094 C 17.398438 -1.363281 17.640625 -1.957031 17.902344 -2.574219 C 19.15625 -2.574219 20.410156 -2.484375 21.597656 -2.113281 C 21.90625 -2 22.058594 -2.242188 21.992188 -2.507812 Z M 16.914062 -3.738281 C 16.671875 -3.71875 16.429688 -3.71875 16.210938 -3.71875 C 14.582031 -3.671875 12.953125 -3.539062 11.328125 -3.320312 C 11.589844 -3.628906 11.855469 -3.957031 12.117188 -4.265625 C 13.4375 -5.804688 14.867188 -7.234375 16.386719 -8.578125 C 17.703125 -9.742188 19.070312 -10.929688 20.609375 -11.789062 C 20.5625 -11.679688 20.519531 -11.589844 20.5 -11.503906 C 20.320312 -11.105469 20.144531 -10.710938 19.96875 -10.335938 C 19.664062 -9.609375 19.332031 -8.90625 19.003906 -8.203125 C 18.277344 -6.707031 17.550781 -5.234375 16.914062 -3.738281 Z M 16.914062 -3.738281 "/></g></g></g><g fill="#000000" fill-opacity="1"><g transform="translate(54.375411, 24.211747)"><g><path d="M 8.226562 -12.007812 C 7.367188 -13.4375 5.234375 -11.921875 4.3125 -11.28125 C 2.726562 -10.226562 1.496094 -8.753906 0.660156 -7.058594 C 0.441406 -6.597656 1.515625 -5.675781 1.804688 -6.246094 C 2.417969 -7.476562 3.253906 -8.578125 4.3125 -9.480469 C 4.816406 -9.941406 5.386719 -10.335938 5.980469 -10.667969 C 6.222656 -10.800781 6.464844 -10.929688 6.707031 -11.039062 C 6.621094 -10.863281 6.53125 -10.667969 6.445312 -10.492188 C 6.113281 -9.832031 5.785156 -9.171875 5.453125 -8.511719 C 4.792969 -7.234375 4.179688 -5.9375 3.628906 -4.617188 C 2.550781 -2.046875 1.78125 0.660156 1.671875 3.453125 C 1.671875 3.957031 2.835938 4.75 2.859375 4.046875 C 2.96875 0.0664062 4.574219 -3.652344 6.3125 -7.171875 C 6.753906 -8.027344 7.191406 -8.886719 7.632812 -9.765625 C 7.960938 -10.402344 8.664062 -11.28125 8.226562 -12.007812 Z M 8.226562 -12.007812 "/></g></g></g><g fill="#000000" fill-opacity="1"><g transform="translate(33.519346, 34.794006)"><g><path d="M 2.8125 -3 L 2.8125 0 L 2.40625 0 L 2.40625 -1.359375 L 0.796875 -1.359375 L 0.796875 0 L 0.390625 0 L 0.390625 -3 L 0.796875 -3 L 0.796875 -1.65625 L 2.40625 -1.65625 L 2.40625 -3 Z M 2.8125 -3 "/></g></g></g><g fill="#000000" fill-opacity="1"><g transform="translate(37.973118, 34.794006)"><g><path d="M 1.96875 -1.109375 L 1.5 -2.328125 C 1.488281 -2.367188 1.472656 -2.410156 1.453125 -2.453125 C 1.441406 -2.503906 1.429688 -2.554688 1.421875 -2.609375 C 1.390625 -2.503906 1.359375 -2.410156 1.328125 -2.328125 L 0.859375 -1.109375 Z M 2.828125 0 L 2.515625 0 C 2.472656 0 2.441406 -0.00390625 2.421875 -0.015625 C 2.398438 -0.0351562 2.382812 -0.0625 2.375 -0.09375 L 2.09375 -0.828125 L 0.75 -0.828125 L 0.46875 -0.09375 C 0.457031 -0.0703125 0.4375 -0.0507812 0.40625 -0.03125 C 0.382812 -0.0078125 0.359375 0 0.328125 0 L 0.015625 0 L 1.21875 -3 L 1.625 -3 Z M 2.828125 0 "/></g></g></g><g fill="#000000" fill-opacity="1"><g transform="translate(42.06464, 34.794006)"><g><path d="M 1.921875 -2.53125 C 1.910156 -2.507812 1.894531 -2.492188 1.875 -2.484375 C 1.863281 -2.472656 1.847656 -2.46875 1.828125 -2.46875 C 1.796875 -2.46875 1.765625 -2.476562 1.734375 -2.5 C 1.703125 -2.53125 1.660156 -2.554688 1.609375 -2.578125 C 1.566406 -2.609375 1.507812 -2.632812 1.4375 -2.65625 C 1.375 -2.6875 1.296875 -2.703125 1.203125 -2.703125 C 1.109375 -2.703125 1.023438 -2.6875 0.953125 -2.65625 C 0.890625 -2.632812 0.832031 -2.601562 0.78125 -2.5625 C 0.738281 -2.519531 0.703125 -2.46875 0.671875 -2.40625 C 0.648438 -2.351562 0.640625 -2.296875 0.640625 -2.234375 C 0.640625 -2.148438 0.660156 -2.078125 0.703125 -2.015625 C 0.742188 -1.960938 0.796875 -1.914062 0.859375 -1.875 C 0.929688 -1.84375 1.007812 -1.8125 1.09375 -1.78125 C 1.1875 -1.75 1.273438 -1.71875 1.359375 -1.6875 C 1.453125 -1.65625 1.539062 -1.617188 1.625 -1.578125 C 1.707031 -1.546875 1.78125 -1.5 1.84375 -1.4375 C 1.914062 -1.382812 1.972656 -1.3125 2.015625 -1.21875 C 2.054688 -1.132812 2.078125 -1.03125 2.078125 -0.90625 C 2.078125 -0.78125 2.054688 -0.660156 2.015625 -0.546875 C 1.972656 -0.429688 1.90625 -0.328125 1.8125 -0.234375 C 1.726562 -0.148438 1.625 -0.0820312 1.5 -0.03125 C 1.375 0.0078125 1.234375 0.03125 1.078125 0.03125 C 0.878906 0.03125 0.703125 0 0.546875 -0.0625 C 0.390625 -0.132812 0.253906 -0.234375 0.140625 -0.359375 L 0.25 -0.546875 C 0.257812 -0.566406 0.273438 -0.582031 0.296875 -0.59375 C 0.316406 -0.601562 0.332031 -0.609375 0.34375 -0.609375 C 0.363281 -0.609375 0.382812 -0.597656 0.40625 -0.578125 C 0.4375 -0.566406 0.460938 -0.550781 0.484375 -0.53125 C 0.515625 -0.507812 0.546875 -0.484375 0.578125 -0.453125 C 0.617188 -0.429688 0.664062 -0.40625 0.71875 -0.375 C 0.769531 -0.351562 0.820312 -0.332031 0.875 -0.3125 C 0.9375 -0.300781 1.007812 -0.296875 1.09375 -0.296875 C 1.1875 -0.296875 1.269531 -0.3125 1.34375 -0.34375 C 1.425781 -0.375 1.492188 -0.410156 1.546875 -0.453125 C 1.597656 -0.503906 1.632812 -0.5625 1.65625 -0.625 C 1.6875 -0.695312 1.703125 -0.773438 1.703125 -0.859375 C 1.703125 -0.941406 1.679688 -1.007812 1.640625 -1.0625 C 1.597656 -1.125 1.539062 -1.175781 1.46875 -1.21875 C 1.40625 -1.257812 1.332031 -1.289062 1.25 -1.3125 C 1.164062 -1.34375 1.078125 -1.375 0.984375 -1.40625 C 0.890625 -1.4375 0.800781 -1.46875 0.71875 -1.5 C 0.632812 -1.539062 0.554688 -1.585938 0.484375 -1.640625 C 0.421875 -1.703125 0.367188 -1.78125 0.328125 -1.875 C 0.285156 -1.96875 0.265625 -2.078125 0.265625 -2.203125 C 0.265625 -2.316406 0.285156 -2.421875 0.328125 -2.515625 C 0.367188 -2.617188 0.425781 -2.707031 0.5 -2.78125 C 0.582031 -2.851562 0.679688 -2.910156 0.796875 -2.953125 C 0.910156 -3.003906 1.046875 -3.03125 1.203125 -3.03125 C 1.367188 -3.03125 1.519531 -3.003906 1.65625 -2.953125 C 1.789062 -2.898438 1.910156 -2.820312 2.015625 -2.71875 Z M 1.921875 -2.53125 "/></g></g></g><g fill="#000000" fill-opacity="1"><g transform="translate(45.592896, 34.794006)"><g><path d="M 1.546875 -0.328125 C 1.671875 -0.328125 1.78125 -0.347656 1.875 -0.390625 C 1.96875 -0.429688 2.046875 -0.488281 2.109375 -0.5625 C 2.179688 -0.632812 2.234375 -0.722656 2.265625 -0.828125 C 2.304688 -0.929688 2.328125 -1.046875 2.328125 -1.171875 L 2.328125 -3 L 2.734375 -3 L 2.734375 -1.171875 C 2.734375 -1.003906 2.703125 -0.84375 2.640625 -0.6875 C 2.585938 -0.539062 2.507812 -0.414062 2.40625 -0.3125 C 2.3125 -0.207031 2.1875 -0.125 2.03125 -0.0625 C 1.882812 0 1.722656 0.03125 1.546875 0.03125 C 1.359375 0.03125 1.191406 0 1.046875 -0.0625 C 0.898438 -0.125 0.773438 -0.207031 0.671875 -0.3125 C 0.566406 -0.414062 0.484375 -0.539062 0.421875 -0.6875 C 0.367188 -0.84375 0.34375 -1.003906 0.34375 -1.171875 L 0.34375 -3 L 0.75 -3 L 0.75 -1.171875 C 0.75 -1.046875 0.765625 -0.929688 0.796875 -0.828125 C 0.835938 -0.722656 0.890625 -0.632812 0.953125 -0.5625 C 1.023438 -0.488281 1.109375 -0.429688 1.203125 -0.390625 C 1.304688 -0.347656 1.421875 -0.328125 1.546875 -0.328125 Z M 1.546875 -0.328125 "/></g></g></g><g fill="#000000" fill-opacity="1"><g transform="translate(49.929409, 34.794006)"><g><path d="M 0.796875 0 L 0.390625 0 L 0.390625 -3 L 0.796875 -3 Z M 0.796875 0 "/></g></g></g><g fill="#000000" fill-opacity="1"><g transform="translate(52.358357, 34.794006)"><g><path d="M 0.78125 -1.6875 L 0.9375 -1.6875 C 0.988281 -1.6875 1.03125 -1.691406 1.0625 -1.703125 C 1.09375 -1.710938 1.125 -1.738281 1.15625 -1.78125 L 2.15625 -2.90625 C 2.1875 -2.9375 2.210938 -2.957031 2.234375 -2.96875 C 2.265625 -2.988281 2.304688 -3 2.359375 -3 L 2.703125 -3 L 1.5625 -1.703125 C 1.53125 -1.671875 1.5 -1.644531 1.46875 -1.625 C 1.445312 -1.601562 1.421875 -1.585938 1.390625 -1.578125 C 1.429688 -1.554688 1.46875 -1.535156 1.5 -1.515625 C 1.53125 -1.492188 1.554688 -1.460938 1.578125 -1.421875 L 2.78125 0 L 2.421875 0 C 2.398438 0 2.378906 0 2.359375 0 C 2.335938 -0.0078125 2.316406 -0.015625 2.296875 -0.015625 C 2.285156 -0.0234375 2.273438 -0.0351562 2.265625 -0.046875 C 2.253906 -0.0546875 2.25 -0.0664062 2.25 -0.078125 L 1.203125 -1.28125 C 1.179688 -1.3125 1.148438 -1.332031 1.109375 -1.34375 C 1.078125 -1.363281 1.03125 -1.375 0.96875 -1.375 L 0.78125 -1.375 L 0.78125 0 L 0.390625 0 L 0.390625 -3 L 0.78125 -3 Z M 0.78125 -1.6875 "/></g></g></g><g fill="#000000" fill-opacity="1"><g transform="translate(56.389157, 34.794006)"><g><path d="M 2.234375 -0.328125 L 2.234375 0 L 0.390625 0 L 0.390625 -3 L 2.234375 -3 L 2.234375 -2.671875 L 0.796875 -2.671875 L 0.796875 -1.671875 L 1.953125 -1.671875 L 1.953125 -1.359375 L 0.796875 -1.359375 L 0.796875 -0.328125 Z M 2.234375 -0.328125 "/></g></g></g></svg>