<?xml version="1.0" encoding="utf-8"?>
<svg xmlns="http://www.w3.org/2000/svg" xmlns:xlink="http://www.w3.org/1999/xlink" style="margin: auto; background: rgb(241, 242, 243); display: block; z-index: 1; position: relative; shape-rendering: auto;" width="1300" height="850" preserveAspectRatio="xMidYMid" viewBox="0 0 1440 657">
<g transform="translate(720,328.5) scale(1,1) translate(-720,-328.5)"><path d="M-100 388.39C-72.96 383.98 -73.15 388.08 -47.1 388.08S-19.62 389.61 5.81 389.61S33.52 388.59 58.71 388.59S85.83 387.81 111.61 387.81S138.43 387.41 164.52 387.41S191.46 386.4 217.42 386.4S244.05 390 270.32 390S297.59 385.02 323.23 385.02S350.82 386.18 376.13 386.18S403.42 391.04 429.03 391.04S456.2 381.76 481.94 381.76S509.17 388.8 534.84 388.8S562.09 393.03 587.74 393.03S615.17 381.69 640.65 381.69S668.64 388.67 693.55 388.67S720.17 389.76 746.45 389.76S774.39 390.64 799.35 390.64S826.68 390.41 852.26 390.41S879.8 395.22 905.16 395.22S933.23 387.06 958.06 387.06S985.21 383.3 1010.97 383.3S1037.44 391.87 1063.87 391.87S1091.88 393.68 1116.77 393.68S1144.36 393.6 1169.68 393.6S1197.43 384.9 1222.58 384.9S1249.73 394.91 1275.48 394.91S1303.07 383.58 1328.39 383.58S1356.38 395.12 1381.29 395.12S1409.2 396.79 1434.19 396.79S1462.04 393.22 1487.1 393.22S1514.59 394.25 1540 394.25S1567.43 389.86 1592.9 389.86L1540 657 L-100 657 Z" fill="#1d3f72" stroke-width="0">
  <animate attributeName="d" dur="25s" repeatCount="indefinite" values="M-100 388.39C-72.96 383.98 -73.15 388.08 -47.1 388.08S-19.62 389.61 5.81 389.61S33.52 388.59 58.71 388.59S85.83 387.81 111.61 387.81S138.43 387.41 164.52 387.41S191.46 386.4 217.42 386.4S244.05 390 270.32 390S297.59 385.02 323.23 385.02S350.82 386.18 376.13 386.18S403.42 391.04 429.03 391.04S456.2 381.76 481.94 381.76S509.17 388.8 534.84 388.8S562.09 393.03 587.74 393.03S615.17 381.69 640.65 381.69S668.64 388.67 693.55 388.67S720.17 389.76 746.45 389.76S774.39 390.64 799.35 390.64S826.68 390.41 852.26 390.41S879.8 395.22 905.16 395.22S933.23 387.06 958.06 387.06S985.21 383.3 1010.97 383.3S1037.44 391.87 1063.87 391.87S1091.88 393.68 1116.77 393.68S1144.36 393.6 1169.68 393.6S1197.43 384.9 1222.58 384.9S1249.73 394.91 1275.48 394.91S1303.07 383.58 1328.39 383.58S1356.38 395.12 1381.29 395.12S1409.2 396.79 1434.19 396.79S1462.04 393.22 1487.1 393.22S1514.59 394.25 1540 394.25S1567.43 389.86 1592.9 389.86L1540 657 L-100 657 Z;M-100 385.47C-72.89 390.99 -73.47 383.94 -47.1 383.94S-19.57 390.26 5.81 390.26S32.89 397.03 58.71 397.03S86.72 394.75 111.61 394.75S138.25 394.73 164.52 394.73S191.77 386.88 217.42 386.88S244.15 392.63 270.32 392.63S296.93 397.37 323.23 397.37S351.17 395.57 376.13 395.57S403.12 382.24 429.03 382.24S456.63 386.34 481.94 386.34S509.41 393.9 534.84 393.9S562.02 387.92 587.74 387.92S615.64 393.04 640.65 393.04S667.74 391.68 693.55 391.68S720.61 394.4 746.45 394.4S774.08 393.02 799.35 393.02S825.87 382.38 852.26 382.38S880.22 395.32 905.16 395.32S932.29 392.43 958.06 392.43S985.08 382.1 1010.97 382.1S1037.88 395.49 1063.87 395.49S1090.88 393.88 1116.77 393.88S1144.1 390.76 1169.68 390.76S1197.31 381.64 1222.58 381.64S1249.35 395.65 1275.48 395.65S1302.9 387.9 1328.39 387.9S1355.77 383.3 1381.29 383.3S1408.21 389.94 1434.19 389.94S1462.15 387.94 1487.1 387.94S1513.68 396.73 1540 396.73S1566.61 387.22 1592.9 387.22L1540 657 L-100 657 Z;M-100 388.39C-72.96 383.98 -73.15 388.08 -47.1 388.08S-19.62 389.61 5.81 389.61S33.52 388.59 58.71 388.59S85.83 387.81 111.61 387.81S138.43 387.41 164.52 387.41S191.46 386.4 217.42 386.4S244.05 390 270.32 390S297.59 385.02 323.23 385.02S350.82 386.18 376.13 386.18S403.42 391.04 429.03 391.04S456.2 381.76 481.94 381.76S509.17 388.8 534.84 388.8S562.09 393.03 587.74 393.03S615.17 381.69 640.65 381.69S668.64 388.67 693.55 388.67S720.17 389.76 746.45 389.76S774.39 390.64 799.35 390.64S826.68 390.41 852.26 390.41S879.8 395.22 905.16 395.22S933.23 387.06 958.06 387.06S985.21 383.3 1010.97 383.3S1037.44 391.87 1063.87 391.87S1091.88 393.68 1116.77 393.68S1144.36 393.6 1169.68 393.6S1197.43 384.9 1222.58 384.9S1249.73 394.91 1275.48 394.91S1303.07 383.58 1328.39 383.58S1356.38 395.12 1381.29 395.12S1409.2 396.79 1434.19 396.79S1462.04 393.22 1487.1 393.22S1514.59 394.25 1540 394.25S1567.43 389.86 1592.9 389.86L1540 657 L-100 657 Z"></animate>
  <animateTransform attributeName="transform" type="translate" dur="25s" begin="0s" repeatCount="indefinite" values="0;10;0" calcMode="spline" keySplines="0.3 0 0.7 1;0.3 0 0.7 1"></animateTransform>
</path><path d="M-100 412.15C-72.29 401.24 -72.42 407.27 -45.7 407.27S-17.19 406.28 8.61 406.28S36.04 410.84 62.91 410.84S90.41 409.23 117.22 409.23S145.31 415.76 171.52 415.76S199.75 408.39 225.83 408.39S253 415.42 280.13 415.42S307.36 410.33 334.44 410.33S362.94 403.8 388.74 403.8S417.44 408.95 443.05 408.95S470.32 410.62 497.35 410.62S525.51 398.53 551.66 398.53S579.19 413.88 605.96 413.88S634.05 404.92 660.26 404.92S687.86 402.01 714.57 402.01S741.97 411 768.87 411S797.26 409.09 823.18 409.09S850.63 408.53 877.48 408.53S905.79 407.66 931.79 407.66S959.41 407.53 986.09 407.53S1014.09 410.91 1040.4 410.91S1068.16 401.67 1094.7 401.67S1122.84 412.29 1149.01 412.29S1176.47 408.39 1203.31 408.39S1231.31 413.06 1257.62 413.06S1285.47 411.66 1311.92 411.66S1339.92 404.06 1366.23 404.06S1394.56 398.64 1420.53 398.64S1448.98 405.45 1474.83 405.45S1502.25 399.39 1529.14 399.39S1556.93 410.76 1583.44 410.76L1540 657 L-100 657 Z" fill="#23477b" stroke-width="0">
  <animate attributeName="d" dur="22.5s" repeatCount="indefinite" values="M-100 412.15C-72.29 401.24 -72.42 407.27 -45.7 407.27S-17.19 406.28 8.61 406.28S36.04 410.84 62.91 410.84S90.41 409.23 117.22 409.23S145.31 415.76 171.52 415.76S199.75 408.39 225.83 408.39S253 415.42 280.13 415.42S307.36 410.33 334.44 410.33S362.94 403.8 388.74 403.8S417.44 408.95 443.05 408.95S470.32 410.62 497.35 410.62S525.51 398.53 551.66 398.53S579.19 413.88 605.96 413.88S634.05 404.92 660.26 404.92S687.86 402.01 714.57 402.01S741.97 411 768.87 411S797.26 409.09 823.18 409.09S850.63 408.53 877.48 408.53S905.79 407.66 931.79 407.66S959.41 407.53 986.09 407.53S1014.09 410.91 1040.4 410.91S1068.16 401.67 1094.7 401.67S1122.84 412.29 1149.01 412.29S1176.47 408.39 1203.31 408.39S1231.31 413.06 1257.62 413.06S1285.47 411.66 1311.92 411.66S1339.92 404.06 1366.23 404.06S1394.56 398.64 1420.53 398.64S1448.98 405.45 1474.83 405.45S1502.25 399.39 1529.14 399.39S1556.93 410.76 1583.44 410.76L1540 657 L-100 657 Z;M-100 414.46C-71.29 414.84 -72.38 401.64 -45.7 401.64S-17.77 413.46 8.61 413.46S36.22 400.91 62.91 400.91S90.12 413.81 117.22 413.81S145.15 403.62 171.52 403.62S198.68 410.52 225.83 410.52S253.06 408.08 280.13 408.08S307.85 411.68 334.44 411.68S362.54 403.52 388.74 403.52S416.12 397.63 443.05 397.63S470.57 401.54 497.35 401.54S525.4 409.2 551.66 409.2S579 406.36 605.96 406.36S633.65 416.89 660.26 416.89S687.69 402.55 714.57 402.55S742.74 409.27 768.87 409.27S797.17 402.57 823.18 402.57S851.54 409.07 877.48 409.07S905.36 408.45 931.79 408.45S960.51 405.41 986.09 405.41S1014.26 408.21 1040.4 408.21S1068.12 404.07 1094.7 404.07S1121.99 407.76 1149.01 407.76S1177.53 411.08 1203.31 411.08S1231.22 416.54 1257.62 416.54S1285.79 400.28 1311.92 400.28S1340.18 410.92 1366.23 410.92S1394.32 413.4 1420.53 413.4S1449.09 415.5 1474.83 415.5S1502.91 405.66 1529.14 405.66S1557.92 408.11 1583.44 408.11L1540 657 L-100 657 Z;M-100 412.15C-72.29 401.24 -72.42 407.27 -45.7 407.27S-17.19 406.28 8.61 406.28S36.04 410.84 62.91 410.84S90.41 409.23 117.22 409.23S145.31 415.76 171.52 415.76S199.75 408.39 225.83 408.39S253 415.42 280.13 415.42S307.36 410.33 334.44 410.33S362.94 403.8 388.74 403.8S417.44 408.95 443.05 408.95S470.32 410.62 497.35 410.62S525.51 398.53 551.66 398.53S579.19 413.88 605.96 413.88S634.05 404.92 660.26 404.92S687.86 402.01 714.57 402.01S741.97 411 768.87 411S797.26 409.09 823.18 409.09S850.63 408.53 877.48 408.53S905.79 407.66 931.79 407.66S959.41 407.53 986.09 407.53S1014.09 410.91 1040.4 410.91S1068.16 401.67 1094.7 401.67S1122.84 412.29 1149.01 412.29S1176.47 408.39 1203.31 408.39S1231.31 413.06 1257.62 413.06S1285.47 411.66 1311.92 411.66S1339.92 404.06 1366.23 404.06S1394.56 398.64 1420.53 398.64S1448.98 405.45 1474.83 405.45S1502.25 399.39 1529.14 399.39S1556.93 410.76 1583.44 410.76L1540 657 L-100 657 Z"></animate>
  <animateTransform attributeName="transform" type="translate" dur="22.5s" begin="-2.25s" repeatCount="indefinite" values="0;10;0" calcMode="spline" keySplines="0.3 0 0.7 1;0.3 0 0.7 1"></animateTransform>
</path><path d="M-100 416.19C-72.09 418.12 -70.93 433.27 -44.22 433.27S-15.73 417.26 11.56 417.26S40.86 421.76 67.35 421.76S96.44 414.19 123.13 414.19S151.89 427.13 178.91 427.13S207.08 428.74 234.69 428.74S263.74 425.83 290.48 425.83S319.2 428.09 346.26 428.09S374.74 414.01 402.04 414.01S430.38 419.12 457.82 419.12S485.72 426.34 513.61 426.34S541.55 433.44 569.39 433.44S598.63 418.75 625.17 418.75S653.28 416.08 680.95 416.08S710.33 424.87 736.73 424.87S764.75 419.79 792.52 419.79S821.85 430.62 848.3 430.62S876.3 426.89 904.08 426.89S932.51 421.62 959.86 421.62S989.36 421.63 1015.65 421.63S1044.08 421.42 1071.43 421.42S1099.47 426.49 1127.21 426.49S1156.2 433.85 1182.99 433.85S1212.4 433.77 1238.78 433.77S1268.3 434.34 1294.56 434.34S1322.72 426.9 1350.34 426.9S1378.3 436.76 1406.12 436.76S1434.56 425.55 1461.9 425.55S1490.48 436.85 1517.69 436.85S1546.7 427.32 1573.47 427.32L1540 657 L-100 657 Z" fill="#285085" stroke-width="0">
  <animate attributeName="d" dur="20s" repeatCount="indefinite" values="M-100 416.19C-72.09 418.12 -70.93 433.27 -44.22 433.27S-15.73 417.26 11.56 417.26S40.86 421.76 67.35 421.76S96.44 414.19 123.13 414.19S151.89 427.13 178.91 427.13S207.08 428.74 234.69 428.74S263.74 425.83 290.48 425.83S319.2 428.09 346.26 428.09S374.74 414.01 402.04 414.01S430.38 419.12 457.82 419.12S485.72 426.34 513.61 426.34S541.55 433.44 569.39 433.44S598.63 418.75 625.17 418.75S653.28 416.08 680.95 416.08S710.33 424.87 736.73 424.87S764.75 419.79 792.52 419.79S821.85 430.62 848.3 430.62S876.3 426.89 904.08 426.89S932.51 421.62 959.86 421.62S989.36 421.63 1015.65 421.63S1044.08 421.42 1071.43 421.42S1099.47 426.49 1127.21 426.49S1156.2 433.85 1182.99 433.85S1212.4 433.77 1238.78 433.77S1268.3 434.34 1294.56 434.34S1322.72 426.9 1350.34 426.9S1378.3 436.76 1406.12 436.76S1434.56 425.55 1461.9 425.55S1490.48 436.85 1517.69 436.85S1546.7 427.32 1573.47 427.32L1540 657 L-100 657 Z;M-100 414.03C-70.77 417.07 -70.97 436.87 -44.22 436.87S-15.7 428.87 11.56 428.87S40.19 432.67 67.35 432.67S95.35 428.7 123.13 428.7S151.34 424.02 178.91 424.02S207.38 428.58 234.69 428.58S263.86 430.06 290.48 430.06S319.69 428.92 346.26 428.92S374.42 430.45 402.04 430.45S430.69 414.61 457.82 414.61S486.45 431.07 513.61 431.07S542.94 427.58 569.39 427.58S598.67 426.62 625.17 426.62S654.32 423.12 680.95 423.12S710.29 434.84 736.73 434.84S766.08 434.66 792.52 434.66S820.96 422.94 848.3 422.94S876.55 427.23 904.08 427.23S932.54 426.73 959.86 426.73S988.73 429.31 1015.65 429.31S1044.81 420.95 1071.43 420.95S1100.34 415.23 1127.21 415.23S1156.44 423.9 1182.99 423.9S1210.99 427.73 1238.78 427.73S1268.22 436.05 1294.56 436.05S1323.67 418.79 1350.34 418.79S1378.98 430.54 1406.12 430.54S1434.85 419.59 1461.9 419.59S1490.27 428.3 1517.69 428.3S1546.37 419.15 1573.47 419.15L1540 657 L-100 657 Z;M-100 416.19C-72.09 418.12 -70.93 433.27 -44.22 433.27S-15.73 417.26 11.56 417.26S40.86 421.76 67.35 421.76S96.44 414.19 123.13 414.19S151.89 427.13 178.91 427.13S207.08 428.74 234.69 428.74S263.74 425.83 290.48 425.83S319.2 428.09 346.26 428.09S374.74 414.01 402.04 414.01S430.38 419.12 457.82 419.12S485.72 426.34 513.61 426.34S541.55 433.44 569.39 433.44S598.63 418.75 625.17 418.75S653.28 416.08 680.95 416.08S710.33 424.87 736.73 424.87S764.75 419.79 792.52 419.79S821.85 430.62 848.3 430.62S876.3 426.89 904.08 426.89S932.51 421.62 959.86 421.62S989.36 421.63 1015.65 421.63S1044.08 421.42 1071.43 421.42S1099.47 426.49 1127.21 426.49S1156.2 433.85 1182.99 433.85S1212.4 433.77 1238.78 433.77S1268.3 434.34 1294.56 434.34S1322.72 426.9 1350.34 426.9S1378.3 436.76 1406.12 436.76S1434.56 425.55 1461.9 425.55S1490.48 436.85 1517.69 436.85S1546.7 427.32 1573.47 427.32L1540 657 L-100 657 Z"></animate>
  <animateTransform attributeName="transform" type="translate" dur="20s" begin="-4s" repeatCount="indefinite" values="0;10;0" calcMode="spline" keySplines="0.3 0 0.7 1;0.3 0 0.7 1"></animateTransform>
</path><path d="M-100 437.54C-69.73 446.32 -70.32 436.63 -42.66 436.63S-13.03 445.59 14.69 445.59S43.42 435.03 72.03 435.03S101.11 443.67 129.37 443.67S159.42 445.49 186.71 445.49S215.5 438.19 244.06 438.19S274.07 444.15 301.4 444.15S330.55 433.82 358.74 433.82S388.72 445.89 416.08 445.89S445.61 444.95 473.43 444.95S502.61 455.46 530.77 455.46S560.14 433.12 588.11 433.12S617.4 433.85 645.45 433.85S674.45 431.63 702.8 431.63S732.3 455.25 760.14 455.25S789.82 431.61 817.48 431.61S846.51 441.44 874.83 441.44S904.13 437.15 932.17 437.15S961.16 445.65 989.51 445.65S1019.31 431.56 1046.85 431.56S1077.13 456.41 1104.2 456.41S1133.23 430.94 1161.54 430.94S1190.74 443.86 1218.88 443.86S1248.38 446.13 1276.22 446.13S1306.19 452.39 1333.57 452.39S1363.1 444.4 1390.91 444.4S1419.96 447.49 1448.25 447.49S1477.3 444.28 1505.59 444.28S1535.7 441.53 1562.94 441.53L1540 657 L-100 657 Z" fill="#2e588e" stroke-width="0">
  <animate attributeName="d" dur="17.5s" repeatCount="indefinite" values="M-100 437.54C-69.73 446.32 -70.32 436.63 -42.66 436.63S-13.03 445.59 14.69 445.59S43.42 435.03 72.03 435.03S101.11 443.67 129.37 443.67S159.42 445.49 186.71 445.49S215.5 438.19 244.06 438.19S274.07 444.15 301.4 444.15S330.55 433.82 358.74 433.82S388.72 445.89 416.08 445.89S445.61 444.95 473.43 444.95S502.61 455.46 530.77 455.46S560.14 433.12 588.11 433.12S617.4 433.85 645.45 433.85S674.45 431.63 702.8 431.63S732.3 455.25 760.14 455.25S789.82 431.61 817.48 431.61S846.51 441.44 874.83 441.44S904.13 437.15 932.17 437.15S961.16 445.65 989.51 445.65S1019.31 431.56 1046.85 431.56S1077.13 456.41 1104.2 456.41S1133.23 430.94 1161.54 430.94S1190.74 443.86 1218.88 443.86S1248.38 446.13 1276.22 446.13S1306.19 452.39 1333.57 452.39S1363.1 444.4 1390.91 444.4S1419.96 447.49 1448.25 447.49S1477.3 444.28 1505.59 444.28S1535.7 441.53 1562.94 441.53L1540 657 L-100 657 Z;M-100 434.34C-69.77 437.42 -69.96 448.05 -42.66 448.05S-13.56 435.24 14.69 435.24S44.55 443.84 72.03 443.84S100.96 438.41 129.37 438.41S159.38 441.87 186.71 441.87S215.44 441.73 244.06 441.73S273.47 439.06 301.4 439.06S330.4 441.85 358.74 441.85S388.03 438.22 416.08 438.22S445.38 432.53 473.43 432.53S502.1 445.01 530.77 445.01S560.46 437 588.11 437S617.31 443.98 645.45 443.98S674.84 443.3 702.8 443.3S732.81 448.22 760.14 448.22S789.93 436.61 817.48 436.61S846.74 446.85 874.83 446.85S904.7 441.75 932.17 441.75S960.99 445.8 989.51 445.8S1018.29 432.15 1046.85 432.15S1076.27 449.75 1104.2 449.75S1133.36 442.78 1161.54 442.78S1191.69 451.58 1218.88 451.58S1248.65 445.11 1276.22 445.11S1306.18 443.24 1333.57 443.24S1363.78 442.53 1390.91 442.53S1419.76 447.03 1448.25 447.03S1477.29 438.51 1505.59 438.51S1535.27 442.98 1562.94 442.98L1540 657 L-100 657 Z;M-100 437.54C-69.73 446.32 -70.32 436.63 -42.66 436.63S-13.03 445.59 14.69 445.59S43.42 435.03 72.03 435.03S101.11 443.67 129.37 443.67S159.42 445.49 186.71 445.49S215.5 438.19 244.06 438.19S274.07 444.15 301.4 444.15S330.55 433.82 358.74 433.82S388.72 445.89 416.08 445.89S445.61 444.95 473.43 444.95S502.61 455.46 530.77 455.46S560.14 433.12 588.11 433.12S617.4 433.85 645.45 433.85S674.45 431.63 702.8 431.63S732.3 455.25 760.14 455.25S789.82 431.61 817.48 431.61S846.51 441.44 874.83 441.44S904.13 437.15 932.17 437.15S961.16 445.65 989.51 445.65S1019.31 431.56 1046.85 431.56S1077.13 456.41 1104.2 456.41S1133.23 430.94 1161.54 430.94S1190.74 443.86 1218.88 443.86S1248.38 446.13 1276.22 446.13S1306.19 452.39 1333.57 452.39S1363.1 444.4 1390.91 444.4S1419.96 447.49 1448.25 447.49S1477.3 444.28 1505.59 444.28S1535.7 441.53 1562.94 441.53L1540 657 L-100 657 Z"></animate>
  <animateTransform attributeName="transform" type="translate" dur="17.5s" begin="-5.25s" repeatCount="indefinite" values="0;10;0" calcMode="spline" keySplines="0.3 0 0.7 1;0.3 0 0.7 1"></animateTransform>
</path><path d="M-100 449.44C-69.92 458.37 -68.94 469.51 -41.01 469.51S-10.91 460.63 17.99 460.63S47.94 460.33 76.98 460.33S107.84 461.62 135.97 461.62S166.68 456.44 194.96 456.44S225.52 458.22 253.96 458.22S284.53 468.23 312.95 468.23S343.87 450.25 371.94 450.25S401.45 455.57 430.94 455.57S460.8 460.16 489.93 460.16S520.64 468.52 548.92 468.52S579.78 451.28 607.91 451.28S638 461.44 666.91 461.44S696.97 451.4 725.9 451.4S756.25 468.2 784.89 468.2S815.85 462.52 843.88 462.52S873.69 469.04 902.88 469.04S933.61 460.47 961.87 460.47S991.97 462.14 1020.86 462.14S1051.14 450.8 1079.86 450.8S1110.64 468.21 1138.85 468.21S1168.79 474.7 1197.84 474.7S1228.32 467.52 1256.83 467.52S1287.5 450.99 1315.83 450.99S1345.8 474.18 1374.82 474.18S1405.65 453.5 1433.81 453.5S1464.07 471.31 1492.81 471.31S1523.77 475.73 1551.8 475.73L1540 657 L-100 657 Z" fill="#346198" stroke-width="0">
  <animate attributeName="d" dur="15s" repeatCount="indefinite" values="M-100 449.44C-69.92 458.37 -68.94 469.51 -41.01 469.51S-10.91 460.63 17.99 460.63S47.94 460.33 76.98 460.33S107.84 461.62 135.97 461.62S166.68 456.44 194.96 456.44S225.52 458.22 253.96 458.22S284.53 468.23 312.95 468.23S343.87 450.25 371.94 450.25S401.45 455.57 430.94 455.57S460.8 460.16 489.93 460.16S520.64 468.52 548.92 468.52S579.78 451.28 607.91 451.28S638 461.44 666.91 461.44S696.97 451.4 725.9 451.4S756.25 468.2 784.89 468.2S815.85 462.52 843.88 462.52S873.69 469.04 902.88 469.04S933.61 460.47 961.87 460.47S991.97 462.14 1020.86 462.14S1051.14 450.8 1079.86 450.8S1110.64 468.21 1138.85 468.21S1168.79 474.7 1197.84 474.7S1228.32 467.52 1256.83 467.52S1287.5 450.99 1315.83 450.99S1345.8 474.18 1374.82 474.18S1405.65 453.5 1433.81 453.5S1464.07 471.31 1492.81 471.31S1523.77 475.73 1551.8 475.73L1540 657 L-100 657 Z;M-100 465.16C-69.24 475.33 -70.37 475.14 -41.01 475.14S-10.38 450.82 17.99 450.82S48.85 469.22 76.98 469.22S106.53 451.46 135.97 451.46S165.84 466.58 194.96 466.58S225.75 468.3 253.96 468.3S284.21 466.05 312.95 466.05S343.71 450.95 371.94 450.95S402.23 467.49 430.94 467.49S460.88 453.47 489.93 453.47S519.63 456.05 548.92 456.05S578.54 473.88 607.91 473.88S637.42 473.88 666.91 473.88S697.38 457.11 725.9 457.11S756 473.82 784.89 473.82S814.84 459.81 843.88 459.81S873.48 462.28 902.88 462.28S932.61 446.8 961.87 446.8S992.44 465.71 1020.86 465.71S1051.66 462.58 1079.86 462.58S1109.79 466.48 1138.85 466.48S1168.98 453.24 1197.84 453.24S1228.38 476.23 1256.83 476.23S1287.59 459.66 1315.83 459.66S1345.43 463.77 1374.82 463.77S1405.18 446.85 1433.81 446.85S1463.47 468.41 1492.81 468.41S1523.02 454.55 1551.8 454.55L1540 657 L-100 657 Z;M-100 449.44C-69.92 458.37 -68.94 469.51 -41.01 469.51S-10.91 460.63 17.99 460.63S47.94 460.33 76.98 460.33S107.84 461.62 135.97 461.62S166.68 456.44 194.96 456.44S225.52 458.22 253.96 458.22S284.53 468.23 312.95 468.23S343.87 450.25 371.94 450.25S401.45 455.57 430.94 455.57S460.8 460.16 489.93 460.16S520.64 468.52 548.92 468.52S579.78 451.28 607.91 451.28S638 461.44 666.91 461.44S696.97 451.4 725.9 451.4S756.25 468.2 784.89 468.2S815.85 462.52 843.88 462.52S873.69 469.04 902.88 469.04S933.61 460.47 961.87 460.47S991.97 462.14 1020.86 462.14S1051.14 450.8 1079.86 450.8S1110.64 468.21 1138.85 468.21S1168.79 474.7 1197.84 474.7S1228.32 467.52 1256.83 467.52S1287.5 450.99 1315.83 450.99S1345.8 474.18 1374.82 474.18S1405.65 453.5 1433.81 453.5S1464.07 471.31 1492.81 471.31S1523.77 475.73 1551.8 475.73L1540 657 L-100 657 Z"></animate>
  <animateTransform attributeName="transform" type="translate" dur="15s" begin="-6s" repeatCount="indefinite" values="0;10;0" calcMode="spline" keySplines="0.3 0 0.7 1;0.3 0 0.7 1"></animateTransform>
</path><path d="M-100 474.04C-68.88 464.46 -69.33 494.64 -39.26 494.64S-8.61 468.19 21.48 468.19S53.33 487.96 82.22 487.96S114.09 469.25 142.96 469.25S173.9 484.52 203.7 484.52S234.11 473.74 264.44 473.74S296.25 488.36 325.19 488.36S355.71 483.37 385.93 483.37S417.05 481.43 446.67 481.43S478.37 471.39 507.41 471.39S538.99 484.24 568.15 484.24S599.75 464.47 628.89 464.47S659.37 492.59 689.63 492.59S720.29 479.45 750.37 479.45S780.86 474.86 811.11 474.86S842.47 490.75 871.85 490.75S903.68 493.24 932.59 493.24S964.56 484.21 993.33 484.21S1024.72 492.34 1054.07 492.34S1085.76 470.22 1114.81 470.22S1145.84 465.14 1175.56 465.14S1207.3 465.51 1236.3 465.51S1267.83 480.05 1297.04 480.05S1328.22 492.76 1357.78 492.76S1389.01 480.79 1418.52 480.79S1449.06 466.72 1479.26 466.72S1509.83 495.67 1540 495.67S1571.16 463.98 1600.74 463.98L1540 657 L-100 657 Z" fill="#396aa2" stroke-width="0">
  <animate attributeName="d" dur="12.5s" repeatCount="indefinite" values="M-100 474.04C-68.88 464.46 -69.33 494.64 -39.26 494.64S-8.61 468.19 21.48 468.19S53.33 487.96 82.22 487.96S114.09 469.25 142.96 469.25S173.9 484.52 203.7 484.52S234.11 473.74 264.44 473.74S296.25 488.36 325.19 488.36S355.71 483.37 385.93 483.37S417.05 481.43 446.67 481.43S478.37 471.39 507.41 471.39S538.99 484.24 568.15 484.24S599.75 464.47 628.89 464.47S659.37 492.59 689.63 492.59S720.29 479.45 750.37 479.45S780.86 474.86 811.11 474.86S842.47 490.75 871.85 490.75S903.68 493.24 932.59 493.24S964.56 484.21 993.33 484.21S1024.72 492.34 1054.07 492.34S1085.76 470.22 1114.81 470.22S1145.84 465.14 1175.56 465.14S1207.3 465.51 1236.3 465.51S1267.83 480.05 1297.04 480.05S1328.22 492.76 1357.78 492.76S1389.01 480.79 1418.52 480.79S1449.06 466.72 1479.26 466.72S1509.83 495.67 1540 495.67S1571.16 463.98 1600.74 463.98L1540 657 L-100 657 Z;M-100 463.8C-69.12 478.81 -68.29 490.38 -39.26 490.38S-8.65 478.1 21.48 478.1S52.1 463.29 82.22 463.29S113.29 463.4 142.96 463.4S173.95 493.63 203.7 493.63S234.42 463.83 264.44 463.83S296.06 490.32 325.19 490.32S356.51 474.4 385.93 474.4S416.99 481.28 446.67 481.28S478.27 476.08 507.41 476.08S538.52 485.11 568.15 485.11S599.91 472.96 628.89 472.96S660.76 480.59 689.63 480.59S720.56 476.62 750.37 476.62S781.56 463.42 811.11 463.42S842.66 474.32 871.85 474.32S902.23 481.95 932.59 481.95S963.58 473.66 993.33 473.66S1025.27 490.68 1054.07 490.68S1086.06 467.78 1114.81 467.78S1146.14 491.77 1175.56 491.77S1206.64 483.97 1236.3 483.97S1267.02 492.39 1297.04 492.39S1327.8 490.89 1357.78 490.89S1388.74 486.69 1418.52 486.69S1450.46 473.53 1479.26 473.53S1511.2 470.88 1540 470.88S1570.42 464.8 1600.74 464.8L1540 657 L-100 657 Z;M-100 474.04C-68.88 464.46 -69.33 494.64 -39.26 494.64S-8.61 468.19 21.48 468.19S53.33 487.96 82.22 487.96S114.09 469.25 142.96 469.25S173.9 484.52 203.7 484.52S234.11 473.74 264.44 473.74S296.25 488.36 325.19 488.36S355.71 483.37 385.93 483.37S417.05 481.43 446.67 481.43S478.37 471.39 507.41 471.39S538.99 484.24 568.15 484.24S599.75 464.47 628.89 464.47S659.37 492.59 689.63 492.59S720.29 479.45 750.37 479.45S780.86 474.86 811.11 474.86S842.47 490.75 871.85 490.75S903.68 493.24 932.59 493.24S964.56 484.21 993.33 484.21S1024.72 492.34 1054.07 492.34S1085.76 470.22 1114.81 470.22S1145.84 465.14 1175.56 465.14S1207.3 465.51 1236.3 465.51S1267.83 480.05 1297.04 480.05S1328.22 492.76 1357.78 492.76S1389.01 480.79 1418.52 480.79S1449.06 466.72 1479.26 466.72S1509.83 495.67 1540 495.67S1571.16 463.98 1600.74 463.98L1540 657 L-100 657 Z"></animate>
  <animateTransform attributeName="transform" type="translate" dur="12.5s" begin="-6.25s" repeatCount="indefinite" values="0;10;0" calcMode="spline" keySplines="0.3 0 0.7 1;0.3 0 0.7 1"></animateTransform>
</path><path d="M-100 493.93C-67.6 490.67 -68.43 502.07 -37.4 502.07S-5.09 488.81 25.19 488.81S57.54 514.32 87.79 514.32S119.6 490 150.38 490S183.11 500.94 212.98 500.94S245.45 485.01 275.57 485.01S307.85 501.09 338.17 501.09S370.43 488.12 400.76 488.12S433.23 505.46 463.36 505.46S495.12 481.21 525.95 481.21S557.4 500.07 588.55 500.07S620.58 491.8 651.15 491.8S683.12 507.02 713.74 507.02S746.04 492.34 776.34 492.34S808.06 481.71 838.93 481.71S871.3 485.73 901.53 485.73S933.3 482.15 964.12 482.15S996.01 484.66 1026.72 484.66S1058.29 500.77 1089.31 500.77S1120.65 483.45 1151.91 483.45S1184.05 505.7 1214.5 505.7S1246.73 484.06 1277.1 484.06S1309.39 502.47 1339.69 502.47S1372.38 514.99 1402.29 514.99S1434.51 505.55 1464.89 505.55S1497.46 511.98 1527.48 511.98S1558.78 502.44 1590.08 502.44L1540 657 L-100 657 Z" fill="#3f73ab" stroke-width="0">
  <animate attributeName="d" dur="10s" repeatCount="indefinite" values="M-100 493.93C-67.6 490.67 -68.43 502.07 -37.4 502.07S-5.09 488.81 25.19 488.81S57.54 514.32 87.79 514.32S119.6 490 150.38 490S183.11 500.94 212.98 500.94S245.45 485.01 275.57 485.01S307.85 501.09 338.17 501.09S370.43 488.12 400.76 488.12S433.23 505.46 463.36 505.46S495.12 481.21 525.95 481.21S557.4 500.07 588.55 500.07S620.58 491.8 651.15 491.8S683.12 507.02 713.74 507.02S746.04 492.34 776.34 492.34S808.06 481.71 838.93 481.71S871.3 485.73 901.53 485.73S933.3 482.15 964.12 482.15S996.01 484.66 1026.72 484.66S1058.29 500.77 1089.31 500.77S1120.65 483.45 1151.91 483.45S1184.05 505.7 1214.5 505.7S1246.73 484.06 1277.1 484.06S1309.39 502.47 1339.69 502.47S1372.38 514.99 1402.29 514.99S1434.51 505.55 1464.89 505.55S1497.46 511.98 1527.48 511.98S1558.78 502.44 1590.08 502.44L1540 657 L-100 657 Z;M-100 481.16C-67.32 483.36 -67.6 509.87 -37.4 509.87S-6.01 485.12 25.19 485.12S56.52 502.76 87.79 502.76S120.21 512.93 150.38 512.93S182.92 513.43 212.98 513.43S244.42 495.15 275.57 495.15S308.2 507.76 338.17 507.76S369.72 487.38 400.76 487.38S433.04 505.08 463.36 505.08S495.04 490.57 525.95 490.57S558.47 506.41 588.55 506.41S620.36 486.63 651.15 486.63S683.12 509.08 713.74 509.08S746.5 491.11 776.34 491.11S808.51 504.14 838.93 504.14S871.48 483.89 901.53 483.89S933.92 511.33 964.12 511.33S996.29 494.82 1026.72 494.82S1058.11 499.75 1089.31 499.75S1121.4 479.85 1151.91 479.85S1184.62 501.29 1214.5 501.29S1247.08 483.47 1277.1 483.47S1310.02 501.81 1339.69 501.81S1372.13 483.54 1402.29 483.54S1434.1 509.17 1464.89 509.17S1497.5 482.25 1527.48 482.25S1559.91 510.65 1590.08 510.65L1540 657 L-100 657 Z;M-100 493.93C-67.6 490.67 -68.43 502.07 -37.4 502.07S-5.09 488.81 25.19 488.81S57.54 514.32 87.79 514.32S119.6 490 150.38 490S183.11 500.94 212.98 500.94S245.45 485.01 275.57 485.01S307.85 501.09 338.17 501.09S370.43 488.12 400.76 488.12S433.23 505.46 463.36 505.46S495.12 481.21 525.95 481.21S557.4 500.07 588.55 500.07S620.58 491.8 651.15 491.8S683.12 507.02 713.74 507.02S746.04 492.34 776.34 492.34S808.06 481.71 838.93 481.71S871.3 485.73 901.53 485.73S933.3 482.15 964.12 482.15S996.01 484.66 1026.72 484.66S1058.29 500.77 1089.31 500.77S1120.65 483.45 1151.91 483.45S1184.05 505.7 1214.5 505.7S1246.73 484.06 1277.1 484.06S1309.39 502.47 1339.69 502.47S1372.38 514.99 1402.29 514.99S1434.51 505.55 1464.89 505.55S1497.46 511.98 1527.48 511.98S1558.78 502.44 1590.08 502.44L1540 657 L-100 657 Z"></animate>
  <animateTransform attributeName="transform" type="translate" dur="10s" begin="-6s" repeatCount="indefinite" values="0;10;0" calcMode="spline" keySplines="0.3 0 0.7 1;0.3 0 0.7 1"></animateTransform>
</path><path d="M-100 502.49C-67.22 506.43 -67.11 519.2 -35.43 519.2S-1.86 500.84 29.13 500.84S61.64 502.78 93.7 502.78S127.21 499.21 158.27 499.21S190.75 531.99 222.83 531.99S255.61 501.13 287.4 501.13S321.07 519.75 351.97 519.75S384.84 502.85 416.54 502.85S449.43 506.58 481.1 506.58S514.32 496.3 545.67 496.3S578.98 530.16 610.24 530.16S643.17 502.65 674.8 502.65S707.22 497.11 739.37 497.11S772.98 508.91 803.94 508.91S836.35 530.93 868.5 530.93S901.59 501.97 933.07 501.97S965.77 532.47 997.64 532.47S1030.07 500.13 1062.2 500.13S1095.09 533.75 1126.77 533.75S1160.02 506.59 1191.34 506.59S1223.74 504.26 1255.91 504.26S1289.31 524.62 1320.47 524.62S1353.18 526.2 1385.04 526.2S1417.77 510.78 1449.61 510.78S1483.5 525.64 1514.17 525.64S1547.11 498.08 1578.74 498.08L1540 657 L-100 657 Z" fill="#457db5" stroke-width="0">
  <animate attributeName="d" dur="7.5s" repeatCount="indefinite" values="M-100 502.49C-67.22 506.43 -67.11 519.2 -35.43 519.2S-1.86 500.84 29.13 500.84S61.64 502.78 93.7 502.78S127.21 499.21 158.27 499.21S190.75 531.99 222.83 531.99S255.61 501.13 287.4 501.13S321.07 519.75 351.97 519.75S384.84 502.85 416.54 502.85S449.43 506.58 481.1 506.58S514.32 496.3 545.67 496.3S578.98 530.16 610.24 530.16S643.17 502.65 674.8 502.65S707.22 497.11 739.37 497.11S772.98 508.91 803.94 508.91S836.35 530.93 868.5 530.93S901.59 501.97 933.07 501.97S965.77 532.47 997.64 532.47S1030.07 500.13 1062.2 500.13S1095.09 533.75 1126.77 533.75S1160.02 506.59 1191.34 506.59S1223.74 504.26 1255.91 504.26S1289.31 524.62 1320.47 524.62S1353.18 526.2 1385.04 526.2S1417.77 510.78 1449.61 510.78S1483.5 525.64 1514.17 525.64S1547.11 498.08 1578.74 498.08L1540 657 L-100 657 Z;M-100 533.78C-66.29 534.57 -66.37 528.41 -35.43 528.41S-1.63 501.19 29.13 501.19S62.88 522.82 93.7 522.82S126.67 505.91 158.27 505.91S191.39 519.43 222.83 519.43S255.87 512.4 287.4 512.4S321.24 502.54 351.97 502.54S384.42 496.94 416.54 496.94S449.01 531.48 481.1 531.48S513.39 502.57 545.67 502.57S579.19 530.27 610.24 530.27S643.59 522.95 674.8 522.95S708.35 527.74 739.37 527.74S772.38 506.64 803.94 506.64S836.63 522.61 868.5 522.61S902.24 504.28 933.07 504.28S966.27 519.97 997.64 519.97S1031.5 498.38 1062.2 498.38S1096.13 534.51 1126.77 534.51S1160.66 501.12 1191.34 501.12S1223.65 529.06 1255.91 529.06S1289.81 509.19 1320.47 509.19S1353.73 529.41 1385.04 529.41S1418.29 507.05 1449.61 507.05S1483.06 533.99 1514.17 533.99S1546.63 501.89 1578.74 501.89L1540 657 L-100 657 Z;M-100 502.49C-67.22 506.43 -67.11 519.2 -35.43 519.2S-1.86 500.84 29.13 500.84S61.64 502.78 93.7 502.78S127.21 499.21 158.27 499.21S190.75 531.99 222.83 531.99S255.61 501.13 287.4 501.13S321.07 519.75 351.97 519.75S384.84 502.85 416.54 502.85S449.43 506.58 481.1 506.58S514.32 496.3 545.67 496.3S578.98 530.16 610.24 530.16S643.17 502.65 674.8 502.65S707.22 497.11 739.37 497.11S772.98 508.91 803.94 508.91S836.35 530.93 868.5 530.93S901.59 501.97 933.07 501.97S965.77 532.47 997.64 532.47S1030.07 500.13 1062.2 500.13S1095.09 533.75 1126.77 533.75S1160.02 506.59 1191.34 506.59S1223.74 504.26 1255.91 504.26S1289.31 524.62 1320.47 524.62S1353.18 526.2 1385.04 526.2S1417.77 510.78 1449.61 510.78S1483.5 525.64 1514.17 525.64S1547.11 498.08 1578.74 498.08L1540 657 L-100 657 Z"></animate>
  <animateTransform attributeName="transform" type="translate" dur="7.5s" begin="-5.25s" repeatCount="indefinite" values="0;10;0" calcMode="spline" keySplines="0.3 0 0.7 1;0.3 0 0.7 1"></animateTransform>
</path><path d="M-100 517.86C-66.38 513.68 -66.21 519.65 -33.33 519.65S1.6 516.28 33.33 516.28S66.83 539.34 100 539.34S134.66 528.12 166.67 528.12S200.11 545.04 233.33 545.04S268.18 518.5 300 518.5S333.63 546.86 366.67 546.86S401.21 524.96 433.33 524.96S466.73 555.09 500 555.09S533.72 519.86 566.67 519.86S600.62 547.56 633.33 547.56S666.81 514.92 700 514.92S734.79 544.22 766.67 544.22S800.66 526.12 833.33 526.12S867.91 540.47 900 540.47S933.85 525.59 966.67 525.59S1001.07 539.13 1033.33 539.13S1067.43 523.94 1100 523.94S1133.51 516.05 1166.67 516.05S1200.23 528.24 1233.33 528.24S1267.28 550.59 1300 550.59S1334.53 513.61 1366.67 513.61S1400.06 539.02 1433.33 539.02S1467.9 514.94 1500 514.94S1534.93 540.94 1566.67 540.94L1540 657 L-100 657 Z" fill="#4a86bf" stroke-width="0">
  <animate attributeName="d" dur="5s" repeatCount="indefinite" values="M-100 517.86C-66.38 513.68 -66.21 519.65 -33.33 519.65S1.6 516.28 33.33 516.28S66.83 539.34 100 539.34S134.66 528.12 166.67 528.12S200.11 545.04 233.33 545.04S268.18 518.5 300 518.5S333.63 546.86 366.67 546.86S401.21 524.96 433.33 524.96S466.73 555.09 500 555.09S533.72 519.86 566.67 519.86S600.62 547.56 633.33 547.56S666.81 514.92 700 514.92S734.79 544.22 766.67 544.22S800.66 526.12 833.33 526.12S867.91 540.47 900 540.47S933.85 525.59 966.67 525.59S1001.07 539.13 1033.33 539.13S1067.43 523.94 1100 523.94S1133.51 516.05 1166.67 516.05S1200.23 528.24 1233.33 528.24S1267.28 550.59 1300 550.59S1334.53 513.61 1366.67 513.61S1400.06 539.02 1433.33 539.02S1467.9 514.94 1500 514.94S1534.93 540.94 1566.67 540.94L1540 657 L-100 657 Z;M-100 521.57C-66.13 518.41 -65.47 544.5 -33.33 544.5S0.44 523.5 33.33 523.5S66.68 554.05 100 554.05S134.24 514.93 166.67 514.93S200.13 545.22 233.33 545.22S267.03 541.74 300 541.74S334.63 546.47 366.67 546.47S401.4 521.19 433.33 521.19S467.52 547.14 500 547.14S533.74 542.28 566.67 542.28S601.48 548.73 633.33 548.73S667.17 524.53 700 524.53S734.53 540.77 766.67 540.77S800.92 515.13 833.33 515.13S867.64 553.89 900 553.89S933.44 525.52 966.67 525.52S1000.02 551.24 1033.33 551.24S1067.79 528 1100 528S1133.4 547.81 1166.67 547.81S1200.72 516.94 1233.33 516.94S1266.79 538.78 1300 538.78S1333.87 538.98 1366.67 538.98S1401.06 539.44 1433.33 539.44S1466.91 551.45 1500 551.45S1533.96 552.12 1566.67 552.12L1540 657 L-100 657 Z;M-100 517.86C-66.38 513.68 -66.21 519.65 -33.33 519.65S1.6 516.28 33.33 516.28S66.83 539.34 100 539.34S134.66 528.12 166.67 528.12S200.11 545.04 233.33 545.04S268.18 518.5 300 518.5S333.63 546.86 366.67 546.86S401.21 524.96 433.33 524.96S466.73 555.09 500 555.09S533.72 519.86 566.67 519.86S600.62 547.56 633.33 547.56S666.81 514.92 700 514.92S734.79 544.22 766.67 544.22S800.66 526.12 833.33 526.12S867.91 540.47 900 540.47S933.85 525.59 966.67 525.59S1001.07 539.13 1033.33 539.13S1067.43 523.94 1100 523.94S1133.51 516.05 1166.67 516.05S1200.23 528.24 1233.33 528.24S1267.28 550.59 1300 550.59S1334.53 513.61 1366.67 513.61S1400.06 539.02 1433.33 539.02S1467.9 514.94 1500 514.94S1534.93 540.94 1566.67 540.94L1540 657 L-100 657 Z"></animate>
  <animateTransform attributeName="transform" type="translate" dur="5s" begin="-4s" repeatCount="indefinite" values="0;10;0" calcMode="spline" keySplines="0.3 0 0.7 1;0.3 0 0.7 1"></animateTransform>
</path><path d="M-100 544.38C-65.31 543.53 -64.36 558.92 -31.09 558.92S3.6 535.66 37.82 535.66S73.26 559.15 106.72 559.15S142.15 533.29 175.63 533.29S210.42 574.39 244.54 574.39S280.14 541.45 313.45 541.45S348.56 561.99 382.35 561.99S417.5 539.55 451.26 539.55S485.88 569.74 520.17 569.74S555.59 537.41 589.08 537.41S624.19 558.77 657.98 558.77S692.45 528.89 726.89 528.89S762.63 572.21 795.8 572.21S831.71 529.35 864.71 529.35S899.57 564.41 933.61 564.41S968.08 542.06 1002.52 542.06S1037.64 534.51 1071.43 534.51S1106.84 559.59 1140.34 559.59S1174.8 573.53 1209.24 573.53S1244.67 534.28 1278.15 534.28S1312.93 568.09 1347.06 568.09S1382.26 544.06 1415.97 544.06S1451.88 568.35 1484.87 568.35S1520.17 530.14 1553.78 530.14L1540 657 L-100 657 Z" fill="#508fc8" stroke-width="0">
  <animate attributeName="d" dur="2.5s" repeatCount="indefinite" values="M-100 544.38C-65.31 543.53 -64.36 558.92 -31.09 558.92S3.6 535.66 37.82 535.66S73.26 559.15 106.72 559.15S142.15 533.29 175.63 533.29S210.42 574.39 244.54 574.39S280.14 541.45 313.45 541.45S348.56 561.99 382.35 561.99S417.5 539.55 451.26 539.55S485.88 569.74 520.17 569.74S555.59 537.41 589.08 537.41S624.19 558.77 657.98 558.77S692.45 528.89 726.89 528.89S762.63 572.21 795.8 572.21S831.71 529.35 864.71 529.35S899.57 564.41 933.61 564.41S968.08 542.06 1002.52 542.06S1037.64 534.51 1071.43 534.51S1106.84 559.59 1140.34 559.59S1174.8 573.53 1209.24 573.53S1244.67 534.28 1278.15 534.28S1312.93 568.09 1347.06 568.09S1382.26 544.06 1415.97 544.06S1451.88 568.35 1484.87 568.35S1520.17 530.14 1553.78 530.14L1540 657 L-100 657 Z;M-100 531.39C-64.12 536.69 -64.1 566.93 -31.09 566.93S4.59 541.5 37.82 541.5S73.66 536.46 106.72 536.46S141.64 537.65 175.63 537.65S210.21 570.4 244.54 570.4S280.31 529.34 313.45 529.34S349.47 573.58 382.35 573.58S416.89 541.36 451.26 541.36S485.89 561.41 520.17 561.41S554.96 533.58 589.08 533.58S624.95 562 657.98 562S693.8 529.51 726.89 529.51S761.48 558.47 795.8 558.47S830.39 545.02 864.71 545.02S899.87 564.55 933.61 564.55S968.34 535.95 1002.52 535.95S1037.66 562.15 1071.43 562.15S1106.73 539.61 1140.34 539.61S1176.23 567.12 1209.24 567.12S1244.27 544.55 1278.15 544.55S1313.08 564.51 1347.06 564.51S1382.59 532.45 1415.97 532.45S1451.34 564.5 1484.87 564.5S1520.29 537.9 1553.78 537.9L1540 657 L-100 657 Z;M-100 544.38C-65.31 543.53 -64.36 558.92 -31.09 558.92S3.6 535.66 37.82 535.66S73.26 559.15 106.72 559.15S142.15 533.29 175.63 533.29S210.42 574.39 244.54 574.39S280.14 541.45 313.45 541.45S348.56 561.99 382.35 561.99S417.5 539.55 451.26 539.55S485.88 569.74 520.17 569.74S555.59 537.41 589.08 537.41S624.19 558.77 657.98 558.77S692.45 528.89 726.89 528.89S762.63 572.21 795.8 572.21S831.71 529.35 864.71 529.35S899.57 564.41 933.61 564.41S968.08 542.06 1002.52 542.06S1037.64 534.51 1071.43 534.51S1106.84 559.59 1140.34 559.59S1174.8 573.53 1209.24 573.53S1244.67 534.28 1278.15 534.28S1312.93 568.09 1347.06 568.09S1382.26 544.06 1415.97 544.06S1451.88 568.35 1484.87 568.35S1520.17 530.14 1553.78 530.14L1540 657 L-100 657 Z"></animate>
  <animateTransform attributeName="transform" type="translate" dur="2.5s" begin="-2.25s" repeatCount="indefinite" values="0;10;0" calcMode="spline" keySplines="0.3 0 0.7 1;0.3 0 0.7 1"></animateTransform>
</path></g>
</svg>